HIERARCHY
ROOT Pelvis
{
	OFFSET 0.000000 0.000000 0.000000
	CHANNELS 6 Xposition Yposition Zposition Xrotation Yrotation Zrotation
	JOINT LeftUpLeg_virtual
	{
		OFFSET 0.000000 0.000000 0.000000
		CHANNELS 3 Xrotation Yrotation Zrotation
		JOINT LeftUpLeg
		{
			OFFSET 18.735201 -5.666702 -4.541200
			CHANNELS 3 Xrotation Yrotation Zrotation
			JOINT LeftLeg
			{
				OFFSET -0.021200 -31.938179 0.493100
				CHANNELS 3 Xrotation Yrotation Zrotation
				JOINT LeftFoot
				{
					OFFSET 0.021200 -31.938179 -4.336299
					CHANNELS 3 Xrotation Yrotation Zrotation
					JOINT LeftToeBase
					{
						OFFSET 0.943001 -26.722000 15.023500
						CHANNELS 3 Xrotation Yrotation Zrotation
						End Site
						{
							OFFSET 0 0 0
						}
					}
				}
			}
		}
	}
	JOINT RightUpLeg_virtual
	{
		OFFSET 0.000000 0.000000 0.000000
		CHANNELS 3 Xrotation Yrotation Zrotation
		JOINT RightUpLeg
		{
			OFFSET -18.735201 -5.666702 -4.541200
			CHANNELS 3 Xrotation Yrotation Zrotation
			JOINT RightLeg
			{
				OFFSET 0.018946 -31.938133 0.493100
				CHANNELS 3 Xrotation Yrotation Zrotation
				JOINT RightFoot
				{
					OFFSET -0.018946 -31.938126 -4.336299
					CHANNELS 3 Xrotation Yrotation Zrotation
					JOINT RightToeBase
					{
						OFFSET -0.943001 -26.722004 15.023500
						CHANNELS 3 Xrotation Yrotation Zrotation
						End Site
						{
							OFFSET 0 0 0
						}
					}
				}
			}
		}
	}
	JOINT Hips_virtual
	{
		OFFSET 0.000000 0.000000 0.000000
		CHANNELS 3 Xrotation Yrotation Zrotation
		JOINT Hips
		{
			OFFSET -0.000000 -0.000000 -0.000000
			CHANNELS 3 Xrotation Yrotation Zrotation
			JOINT Spine
			{
				OFFSET 0.000000 10.199997 -0.299500
				CHANNELS 3 Xrotation Yrotation Zrotation
				JOINT Spine1
				{
					OFFSET 0.000000 11.900002 -1.516600
					CHANNELS 3 Xrotation Yrotation Zrotation
					JOINT Spine2
					{
						OFFSET 0.000000 13.600006 -2.842500
						CHANNELS 3 Xrotation Yrotation Zrotation
						JOINT Neck_virtual
						{
							OFFSET 0.000000 0.000000 0.000000
							CHANNELS 3 Xrotation Yrotation Zrotation
							JOINT Neck
							{
								OFFSET 0.000000 9.624100 -2.890100
								CHANNELS 3 Xrotation Yrotation Zrotation
								JOINT Head
								{
									OFFSET 0.000000 14.068802 -1.351900
									CHANNELS 3 Xrotation Yrotation Zrotation
									End Site
									{
										OFFSET 0 0 0
									}
								}
							}
						}
						JOINT LeftShoulder_virtual
						{
							OFFSET 0.000000 0.000000 0.000000
							CHANNELS 3 Xrotation Yrotation Zrotation
							JOINT LeftShoulder
							{
								OFFSET 15.263000 10.923401 -0.547700
								CHANNELS 3 Xrotation Yrotation Zrotation
								JOINT LeftArm
								{
									OFFSET 25.438599 -2.830597 -13.032500
									CHANNELS 3 Xrotation Yrotation Zrotation
									JOINT LeftForeArm
									{
										OFFSET 29.960503 0.000000 0.000000
										CHANNELS 3 Xrotation Yrotation Zrotation
										JOINT LeftHand
										{
											OFFSET 27.849251 0.000000 0.000000
											CHANNELS 3 Xrotation Yrotation Zrotation
											End Site
											{
												OFFSET 0 0 0
											}
										}
									}
								}
							}
						}
						JOINT RightShoulder_virtual
						{
							OFFSET 0.000000 0.000000 0.000000
							CHANNELS 3 Xrotation Yrotation Zrotation
							JOINT RightShoulder
							{
								OFFSET -15.263000 10.923401 -0.547700
								CHANNELS 3 Xrotation Yrotation Zrotation
								JOINT RightArm
								{
									OFFSET -25.438599 -2.830597 -13.032500
									CHANNELS 3 Xrotation Yrotation Zrotation
									JOINT RightForeArm
									{
										OFFSET -29.960503 0.000000 0.000000
										CHANNELS 3 Xrotation Yrotation Zrotation
										JOINT RightHand
										{
											OFFSET -27.849251 0.000000 0.000000
											CHANNELS 3 Xrotation Yrotation Zrotation
											End Site
											{
												OFFSET 0 0 0
											}
										}
									}
								}
							}
						}
					}
				}
			}
		}
	}
}
MOTION
Frames: 12
Frame Time: 0.03333333
13.101816 63.931339 -39.200733 0.000000 0.000000 0.000000 16.700648 -56.486020 3.074197 -27.487309 -0.390159 9.775871 83.889203 -6.536715 -3.108945 25.131751 -7.579737 -16.456176 0.000000 0.000000 0.000000 -13.121583 -44.720565 -6.307957 -53.153840 -10.349900 -24.296096 76.622387 -8.050224 2.432675 4.877117 -9.874727 7.687729 0.000000 0.000000 0.000000 16.646178 -8.899969 3.322459 51.952956 -4.980432 6.037997 23.607815 6.196850 0.621073 10.964885 2.794433 1.524495 0.000000 0.000000 0.000000 2.024283 1.033091 -0.290777 0.196085 -0.673098 0.117329 0.000000 0.000000 0.000000 8.458789 1.029103 -1.051072 2.943740 -13.626195 -3.998587 -25.406574 -13.608856 -40.630132 -0.820486 -48.764825 -4.889698 0.000000 0.000000 0.000000 7.157055 2.863833 0.612053 5.199674 19.076071 -1.302048 -24.435357 32.658341 11.642520 -1.093186 49.145185 -6.522014 0.000000 0.000000 0.000000 
13.060778 64.242447 -38.873055 0.000000 0.000000 0.000000 16.328126 -57.265078 3.391866 -28.496120 -0.730782 10.211193 84.922242 -6.356418 -3.255327 26.064063 -7.387823 -16.514055 0.000000 0.000000 0.000000 -12.533196 -44.444287 -6.047870 -52.558644 -10.442832 -24.216166 76.075672 -7.912015 2.589143 4.651228 -9.877604 8.045064 0.000000 0.000000 0.000000 16.418455 -9.287456 3.326814 51.483579 -5.414032 6.042112 23.653229 6.186847 0.378516 10.993996 2.799292 1.367510 0.000000 0.000000 0.000000 2.132799 1.068810 -0.441127 0.230286 -0.651966 0.053102 0.000000 0.000000 0.000000 8.532925 1.019189 -1.147548 3.055412 -13.734977 -4.193578 -25.129294 -13.245740 -40.513352 -0.776532 -48.243996 -4.795016 0.000000 0.000000 0.000000 7.163270 2.879325 0.521322 5.295339 19.040848 -1.484046 -24.377311 32.776640 12.123812 -1.107797 49.352795 -6.289042 0.000000 0.000000 0.000000 
12.993292 64.592682 -38.493946 0.000000 0.000000 0.000000 15.981109 -58.005136 3.779450 -29.537150 -1.080166 10.719277 85.952890 -6.251673 -3.376807 26.956163 -7.285781 -16.606418 0.000000 0.000000 0.000000 -11.860661 -44.123271 -5.758118 -51.874853 -10.544406 -24.130292 75.498780 -7.769182 2.763921 4.377700 -9.885955 8.432305 0.000000 0.000000 0.000000 16.183616 -9.655129 3.327087 50.965567 -5.830988 6.043102 23.691894 6.182770 0.124021 11.024313 2.806206 1.201679 0.000000 0.000000 0.000000 2.234596 1.109519 -0.597663 0.263462 -0.627987 -0.014126 0.000000 0.000000 0.000000 8.601780 1.011375 -1.246319 3.167131 -13.847404 -4.373102 -24.891865 -12.885808 -40.341928 -0.734809 -47.701403 -4.687230 0.000000 0.000000 0.000000 7.169168 2.893165 0.410802 5.415504 19.008929 -1.763140 -24.349799 32.962691 12.576263 -1.127883 49.604870 -6.064118 0.000000 0.000000 0.000000 
12.902646 64.982857 -38.065819 0.000000 0.000000 0.000000 15.660174 -58.701473 4.240478 -30.613284 -1.439026 11.302251 86.964482 -6.214591 -3.468355 27.794060 -7.267073 -16.719238 0.000000 0.000000 0.000000 -11.107127 -43.757938 -5.440017 -51.101816 -10.655242 -24.036559 74.884452 -7.622167 2.956493 4.052790 -9.900451 8.848153 0.000000 0.000000 0.000000 15.944691 -10.000130 3.324313 50.406502 -6.222218 6.042005 23.724618 6.183880 -0.139336 11.056324 2.814272 1.028867 0.000000 0.000000 0.000000 2.327775 1.154500 -0.757328 0.294899 -0.601554 -0.082949 0.000000 0.000000 0.000000 8.665289 1.005063 -1.345677 3.278725 -13.964872 -4.533594 -24.691822 -12.533313 -40.116720 -0.693319 -47.141710 -4.565778 0.000000 0.000000 0.000000 7.174414 2.904583 0.282081 5.558128 18.977947 -2.133572 -24.358186 33.216187 13.001423 -1.153897 49.905136 -5.848954 0.000000 0.000000 0.000000 
12.792769 65.411911 -37.590576 0.000000 0.000000 0.000000 15.371532 -59.342521 4.781540 -31.721355 -1.806009 11.963624 87.936131 -6.228563 -3.526168 28.563875 -7.314444 -16.831509 0.000000 0.000000 0.000000 -10.277810 -43.352252 -5.095132 -50.241140 -10.776484 -23.932817 74.224041 -7.472559 3.166334 3.672273 -9.922787 9.290168 0.000000 0.000000 0.000000 15.705863 -10.320549 3.320397 49.817877 -6.578089 6.042873 23.752171 6.189035 -0.407405 11.090389 2.822360 0.851563 0.000000 0.000000 0.000000 2.409355 1.202716 -0.916237 0.323355 -0.573238 -0.151527 0.000000 0.000000 0.000000 8.722838 0.999685 -1.443896 3.389402 -14.088275 -4.671608 -24.531492 -12.191903 -39.839155 -0.652603 -46.571262 -4.431332 0.000000 0.000000 0.000000 7.177434 2.912370 0.137853 5.718854 18.943820 -2.584954 -24.411654 33.532301 13.405465 -1.188870 50.254479 -5.642291 0.000000 0.000000 0.000000 
12.668321 65.877327 -37.069519 0.000000 0.000000 0.000000 15.124955 -59.909870 5.410189 -32.852438 -2.177613 12.706919 88.843884 -6.271364 -3.548828 29.252546 -7.402892 -16.919775 0.000000 0.000000 0.000000 -9.379551 -42.912648 -4.725250 -49.296655 -10.909398 -23.816938 73.508360 -7.323132 3.392629 3.231729 -9.955490 9.754356 0.000000 0.000000 0.000000 15.471796 -10.615027 3.317910 49.213565 -6.888180 6.052323 23.775125 6.196690 -0.675183 11.126654 2.829180 0.672732 0.000000 0.000000 0.000000 2.475386 1.252823 -1.070038 0.347099 -0.543764 -0.217767 0.000000 0.000000 0.000000 8.773285 0.994729 -1.539268 3.497770 -14.217874 -4.783734 -24.418725 -11.864384 -39.511285 -0.616084 -45.997786 -4.285952 0.000000 0.000000 0.000000 7.175505 2.914865 -0.018400 5.891270 18.900827 -3.103618 -24.522824 33.901630 13.797972 -1.238422 50.650466 -5.440121 0.000000 0.000000 0.000000 
12.534657 66.375687 -36.503517 0.000000 0.000000 0.000000 14.928488 -60.380908 6.130112 -33.994275 -2.548677 13.532930 89.661853 -6.319722 -3.538107 29.847367 -7.504441 -16.963676 0.000000 0.000000 0.000000 -8.420405 -42.445931 -4.332488 -48.274199 -11.054677 -23.687113 72.728360 -7.177556 3.633861 2.726870 -10.001389 10.234960 0.000000 0.000000 0.000000 15.246808 -10.882329 3.319756 48.607273 -7.141327 6.078646 23.793900 6.204892 -0.937345 11.165100 2.833340 0.495512 0.000000 0.000000 0.000000 2.521436 1.303230 -1.214499 0.364135 -0.513983 -0.279627 0.000000 0.000000 0.000000 8.815180 0.989675 -1.630158 3.602050 -14.353571 -4.866678 -24.366068 -11.552983 -39.135953 -0.589600 -45.430149 -4.132929 0.000000 0.000000 0.000000 7.165118 2.909988 -0.182829 6.067574 18.841772 -3.674432 -24.706741 34.310916 14.190291 -1.310323 51.087623 -5.236312 0.000000 0.000000 0.000000 
12.397415 66.903458 -35.893337 0.000000 0.000000 0.000000 14.780813 -60.733462 6.934435 -35.135562 -2.913246 14.436486 90.362952 -6.353745 -3.499152 30.334666 -7.593049 -16.950650 0.000000 0.000000 0.000000 -7.409295 -41.956944 -3.919414 -47.181393 -11.211773 -23.542011 71.875576 -7.039904 3.887479 2.153894 -10.063017 10.724516 0.000000 0.000000 0.000000 15.034085 -11.121172 3.328778 48.009915 -7.326355 6.130655 23.808916 6.211272 -1.188952 11.205671 2.833400 0.322812 0.000000 0.000000 0.000000 2.543352 1.352181 -1.346122 0.372552 -0.484808 -0.335436 0.000000 0.000000 0.000000 8.847213 0.983916 -1.715092 3.700460 -14.495285 -4.917491 -24.388283 -11.260042 -38.717040 -0.580185 -44.877655 -3.976371 0.000000 0.000000 0.000000 7.142603 2.895385 -0.351642 6.239537 18.758587 -4.282649 -24.979105 34.744377 14.593739 -1.413608 51.558342 -5.023536 0.000000 0.000000 0.000000 
12.261635 67.457832 -35.240078 0.000000 0.000000 0.000000 14.664001 -60.950156 7.799620 -36.270278 -3.265500 15.403844 90.919435 -6.359713 -3.440044 30.698750 -7.647998 -16.878275 0.000000 0.000000 0.000000 -6.355699 -41.447326 -3.489105 -46.027139 -11.378644 -23.380736 70.942272 -6.914184 4.149740 1.509885 -10.142090 11.214168 0.000000 0.000000 0.000000 14.835236 -11.330465 3.347388 47.427597 -7.433449 6.216439 23.820951 6.213085 -1.426119 11.248476 2.827938 0.156940 0.000000 0.000000 0.000000 2.538088 1.397859 -1.462547 0.370917 -0.457147 -0.384108 0.000000 0.000000 0.000000 8.868713 0.976699 -1.792845 3.791677 -14.643408 -4.933899 -24.498939 -10.988682 -38.259315 -0.594454 -44.349064 -3.820588 0.000000 0.000000 0.000000 7.104875 2.868641 -0.521428 6.399564 18.643193 -4.915320 -25.353812 35.185484 15.017925 -1.557333 52.054125 -4.794327 0.000000 0.000000 0.000000 
12.130685 68.037453 -34.545601 0.000000 0.000000 0.000000 14.540706 -61.021320 8.683464 -37.399964 -3.600463 16.411963 91.303797 -6.330593 -3.370876 30.921974 -7.655036 -16.753660 0.000000 0.000000 0.000000 -5.269275 -40.915671 -3.045173 -44.821091 -11.551973 -23.202815 69.921630 -6.803991 4.415783 0.793261 -10.239285 11.694145 0.000000 0.000000 0.000000 14.650298 -11.509759 3.377277 46.861139 -7.455805 6.342215 23.831478 6.207388 -1.646413 11.294033 2.815633 -0.000598 0.000000 0.000000 0.000000 2.504375 1.438520 -1.562638 0.358595 -0.431815 -0.425181 0.000000 0.000000 0.000000 8.880105 0.967121 -1.862503 3.875251 -14.798942 -4.914537 -24.706877 -10.743238 -37.767941 -0.636945 -43.851136 -3.669316 0.000000 0.000000 0.000000 7.050187 2.827552 -0.689325 6.541718 18.488491 -5.562086 -25.840185 35.618798 15.469284 -1.749118 52.566802 -4.542159 0.000000 0.000000 0.000000 
12.005412 68.642746 -33.812824 0.000000 0.000000 0.000000 14.358528 -60.945573 9.529487 -38.532403 -3.914378 17.430313 91.490336 -6.264608 -3.302573 30.986738 -7.605597 -16.590552 0.000000 0.000000 0.000000 -4.159512 -40.359000 -2.591774 -43.573014 -11.727731 -23.008215 68.808016 -6.712243 4.679877 0.004193 -10.354136 12.154420 0.000000 0.000000 0.000000 14.478167 -11.659681 3.419255 46.307132 -7.390951 6.511503 23.842997 6.191305 -1.848848 11.343397 2.795382 -0.149070 0.000000 0.000000 0.000000 2.443073 1.472630 -1.646238 0.335921 -0.409459 -0.458696 0.000000 0.000000 0.000000 8.883159 0.954159 -1.923452 3.951884 -14.963553 -4.858927 -25.013406 -10.529355 -37.247299 -0.708792 -43.387670 -3.524882 0.000000 0.000000 0.000000 6.978672 2.770453 -0.853024 6.662466 18.289599 -6.215223 -26.440455 36.031563 15.949914 -1.993825 53.089223 -4.262384 0.000000 0.000000 0.000000 
11.883906 69.275642 -33.045761 0.000000 0.000000 0.000000 14.061533 -60.728851 10.277622 -39.677013 -4.204719 18.424978 91.457339 -6.162938 -3.245629 30.878401 -7.495147 -16.405283 0.000000 0.000000 0.000000 -3.035622 -39.774900 -2.133771 -42.292306 -11.901898 -22.797554 67.597385 -6.640824 4.935801 -0.855081 -10.484953 12.585540 0.000000 0.000000 0.000000 14.317146 -11.782076 3.473228 45.759914 -7.241376 6.724806 23.859090 6.162392 -2.033536 11.398227 2.766416 -0.288290 0.000000 0.000000 0.000000 2.357135 1.498998 -1.713759 0.304195 -0.390499 -0.484970 0.000000 0.000000 0.000000 8.880942 0.936716 -1.975299 4.023473 -15.139459 -4.767197 -25.411072 -10.353776 -36.699703 -0.807018 -42.959096 -3.387450 0.000000 0.000000 0.000000 6.892523 2.696531 -1.010649 6.760949 18.044830 -6.869034 -27.148385 36.414730 16.456788 -2.292676 53.615441 -3.952923 0.000000 0.000000 0.000000 
